<svg width="111" height="133" viewBox="0 0 111 133" fill="none" xmlns="http://www.w3.org/2000/svg">
<g id="icon">
<ellipse id="Oval" opacity="0.3" cx="56" cy="128.5" rx="53" ry="4.5" fill="#CBE7FC"/>
<g id="stopwatch">
<path id="Rectangle" d="M75.1084 44.0861L83.0447 36.1498L86.8732 39.9782L78.9368 47.9145L75.1084 44.0861Z" fill="url(#paint0_linear_0_1939)"/>
<path id="Path" d="M85.5285 43.2738L79.7262 37.4715C78.7579 36.5032 78.7579 34.9333 79.7262 33.965L79.965 33.7262C80.9333 32.7579 82.5032 32.7579 83.4715 33.7262L89.2738 39.5285C90.2421 40.4968 90.2421 42.0667 89.2738 43.035L89.035 43.2738C88.0667 44.2421 86.4968 44.2421 85.5285 43.2738Z" fill="#FFD889"/>
<path id="Path_2" d="M89.212 39.4072L86.8048 37C87.8554 38.0506 87.8554 39.7541 86.8048 40.8046V40.8046C85.7542 41.8552 84.0508 41.8554 83 40.8048L85.4073 43.2119C86.4579 44.2627 88.1614 44.2627 89.212 43.2119V43.2119C90.2627 42.1612 90.2627 40.4579 89.212 39.4072Z" fill="url(#paint1_linear_0_1939)"/>
<rect id="Rectangle_2" x="51" y="26" width="5" height="10" fill="url(#paint2_linear_0_1939)"/>
<path id="Path_3" d="M57.3785 28H48.6215C47.1737 28 46 26.8822 46 25.5033V22.4967C46 21.1178 47.1737 20 48.6215 20H57.3785C58.8263 20 60 21.1178 60 22.4967V25.5033C60 26.8822 58.8264 28 57.3785 28Z" fill="#FFD889"/>
<path id="Path_4" d="M57.3334 20H52C53.4727 20 54.6666 21.1939 54.6666 22.6667V25.3333C54.6666 26.8061 53.4727 28 52 28H57.3334C58.8061 28 60 26.8061 60 25.3333V22.6668C60 21.1939 58.8061 20 57.3334 20Z" fill="url(#paint3_linear_0_1939)"/>
<ellipse id="Oval_2" cx="53.6387" cy="69.6385" rx="37.502" ry="37.4513" transform="rotate(-45 53.6387 69.6385)" fill="url(#paint4_linear_0_1939)"/>
<path id="Path_5" d="M80.1488 42.9642C72.1659 34.8967 61.4444 31.2833 51 32.1173C55.1309 34.1096 59.0028 36.831 62.4233 40.2877C78.5882 56.6238 78.5703 83.1276 62.3836 99.4857C59.3455 102.556 55.9535 105.05 52.3409 106.97C62.3393 107.376 72.4741 103.72 80.1133 96.0001C94.615 81.3447 94.6309 57.5996 80.1488 42.9642Z" fill="#FFD889"/>
<circle id="Oval_3" cx="53.5" cy="69.5" r="30.5" fill="#CFEAFF"/>
<path id="Path_6" d="M63 41C78.9989 56.7266 79.3557 81.8153 64.0835 98C76.2465 93.9971 85 82.824 85 69.6664C85 56.1215 75.7229 44.6814 63 41Z" fill="#6EBFFE"/>
<path id="Path_7" d="M53.5 68C52.6716 68 52 67.3896 52 66.6363V51.3637C52 50.6104 52.6716 50 53.5 50C54.3284 50 55 50.6104 55 51.3637V66.6363C55 67.3896 54.3284 68 53.5 68Z" fill="#0461FB"/>
<g id="Group">
<circle id="Oval_4" cx="53.3437" cy="69.5255" r="4.09666" fill="#0461FB"/>
<path id="Path_8" d="M72.2233 50.5192C72.49 50.786 72.8395 50.9193 73.1889 50.9193C73.5384 50.9193 73.8879 50.786 74.1545 50.5194L75.8863 48.7876C75.2675 48.1192 74.6201 47.4778 73.9442 46.8668L72.2232 48.5878C71.6899 49.1213 71.6899 49.9859 72.2233 50.5192Z" fill="#0461FB"/>
<path id="Path_9" d="M80.085 69.3179C80.085 70.0723 80.6965 70.6836 81.4507 70.6836H83.975C83.99 70.2906 84.0001 69.8965 84.0001 69.4999C84.0001 68.9808 83.9868 68.465 83.9612 67.9521H81.4507C80.6965 67.9523 80.085 68.5637 80.085 69.3179Z" fill="#0461FB"/>
<path id="Path_10" d="M53.4995 42.9149C54.2537 42.9149 54.8652 42.3036 54.8652 41.5492V39.0319C54.4123 39.0119 53.9574 39 53.4995 39C53.0416 39 52.5868 39.0119 52.1338 39.0319V41.5492C52.1338 42.3036 52.7453 42.9149 53.4995 42.9149Z" fill="#0461FB"/>
<path id="Path_11" d="M25.9134 70.6836C26.6676 70.6836 27.2791 70.0723 27.2791 69.3179C27.2791 68.5635 26.6676 67.9521 25.9134 67.9521H23.1821C23.1337 67.9521 23.0858 67.9549 23.0385 67.9598C23.0131 68.4701 23 68.9834 23 69.4999C23 69.8932 23.0099 70.2842 23.0247 70.6737C23.0764 70.6797 23.1289 70.6834 23.1822 70.6834L25.9134 70.6836V70.6836Z" fill="#0461FB"/>
<path id="Path_12" d="M32.7724 91.8715C32.8355 91.827 32.8962 91.778 32.9524 91.7216L34.8838 89.7902C35.4172 89.2568 35.4172 88.3921 34.8838 87.8587C34.3505 87.3256 33.4857 87.3256 32.9524 87.8587L31.021 89.7901C30.9682 89.8429 30.9222 89.8997 30.8799 89.9583C31.4824 90.6239 32.1143 91.2615 32.7724 91.8715Z" fill="#0461FB"/>
<path id="Path_13" d="M76.1826 89.8876L74.2826 87.9876C73.7494 87.4545 72.8845 87.4545 72.3512 87.9876C71.8178 88.521 71.8178 89.3857 72.3512 89.9191L74.2668 91.8347C74.934 91.2143 75.5735 90.5649 76.1826 89.8876Z" fill="#0461FB"/>
<path id="Path_14" d="M31.165 48.7326L33.0807 50.6483C33.3474 50.9149 33.6969 51.0482 34.0463 51.0482C34.3958 51.0482 34.7453 50.9149 35.0119 50.6483C35.5454 50.1149 35.5454 49.2502 35.0119 48.7167L33.1121 46.8169C32.4348 47.426 31.7854 48.0657 31.165 48.7326Z" fill="#0461FB"/>
<path id="Path_15" d="M54.8565 99.9685C54.862 99.919 54.8652 99.8689 54.8652 99.8179V97.0867C54.8652 96.3323 54.2537 95.7209 53.4995 95.7209C52.7453 95.7209 52.1338 96.3323 52.1338 97.0867V99.8179C52.1338 99.8689 52.137 99.9189 52.1425 99.9685C52.5926 99.9883 53.0445 100 53.4995 100C53.9545 100 54.4066 99.9881 54.8565 99.9685Z" fill="#0461FB"/>
</g>
</g>
<path id="Fill 279" fill-rule="evenodd" clip-rule="evenodd" d="M109 23.8419C108.362 23.8419 107.842 24.3614 107.842 24.9996C107.842 25.6386 108.362 26.1581 109 26.1581C109.638 26.1581 110.158 25.6386 110.158 24.9996C110.158 24.3614 109.638 23.8419 109 23.8419M109 27C107.897 27 107 26.1033 107 24.9996C107 23.8967 107.897 23 109 23C110.103 23 111 23.8967 111 24.9996C111 26.1033 110.103 27 109 27" fill="#0461FB"/>
<path id="Fill 278" fill-rule="evenodd" clip-rule="evenodd" d="M47 1.00175C45.3471 1.00175 44.0018 2.34711 44.0018 4C44.0018 5.65389 45.3471 6.99825 47 6.99825C48.6529 6.99825 49.9982 5.65389 49.9982 4C49.9982 2.34711 48.6529 1.00175 47 1.00175M47 8C44.7941 8 43 6.20586 43 4C43 1.79514 44.7941 0 47 0C49.2059 0 51 1.79514 51 4C51 6.20586 49.2059 8 47 8" fill="#0461FB"/>
</g>
<defs>
<linearGradient id="paint0_linear_0_1939" x1="78.9886" y1="39.4328" x2="80.8083" y2="46.463" gradientUnits="userSpaceOnUse">
<stop stop-color="#F9C762"/>
<stop offset="1" stop-color="#F19533"/>
</linearGradient>
<linearGradient id="paint1_linear_0_1939" x1="86.7633" y1="36.2932" x2="81.4221" y2="40.6695" gradientUnits="userSpaceOnUse">
<stop stop-color="#F9C762"/>
<stop offset="1" stop-color="#F19533"/>
</linearGradient>
<linearGradient id="paint2_linear_0_1939" x1="53.6881" y1="24.9902" x2="48.228" y2="27.2271" gradientUnits="userSpaceOnUse">
<stop stop-color="#F9C762"/>
<stop offset="1" stop-color="#F19533"/>
</linearGradient>
<linearGradient id="paint3_linear_0_1939" x1="56.301" y1="19.1922" x2="50.1967" y2="24.1937" gradientUnits="userSpaceOnUse">
<stop stop-color="#F9C762"/>
<stop offset="1" stop-color="#F19533"/>
</linearGradient>
<linearGradient id="paint4_linear_0_1939" x1="56.4604" y1="24.6238" x2="-0.708291" y2="71.5283" gradientUnits="userSpaceOnUse">
<stop stop-color="#F9C762"/>
<stop offset="1" stop-color="#F19533"/>
</linearGradient>
</defs>
</svg>
