<svg width="122" height="132" viewBox="0 0 122 132" fill="none" xmlns="http://www.w3.org/2000/svg">
<g id="icon">
<ellipse id="Oval" opacity="0.3" cx="53" cy="128" rx="53" ry="4" fill="#CBE7FC"/>
<path id="Fill 278" fill-rule="evenodd" clip-rule="evenodd" d="M32 11.0018C30.3471 11.0018 29.0018 12.3471 29.0018 14C29.0018 15.6539 30.3471 16.9982 32 16.9982C33.6529 16.9982 34.9982 15.6539 34.9982 14C34.9982 12.3471 33.6529 11.0018 32 11.0018ZM32 18C29.7941 18 28 16.2059 28 14C28 11.7951 29.7941 10 32 10C34.2059 10 36 11.7951 36 14C36 16.2059 34.2059 18 32 18Z" fill="#0461FB"/>
<g id="Group 140 Copy">
<path id="Fill 138" fill-rule="evenodd" clip-rule="evenodd" d="M120.597 6.67509L115.28 1.23631L116.002 0.530334L121.319 5.96911L120.597 6.67509Z" fill="#0461FB"/>
<path id="Fill 139" fill-rule="evenodd" clip-rule="evenodd" d="M115.894 6.59123L115.198 5.85899L120.706 0.614136L121.402 1.34638L115.894 6.59123Z" fill="#0461FB"/>
</g>
<g id="Group 2">
<g id="herbal">
<g id="Group 4">
<path id="Path 9" d="M80.9803 45.2509H48.4299L31.3564 67.5575L41.0137 89.2994L43.519 90.0093H56.8878L71.1573 87.0677L82.1085 70.7274L85.034 49.1816L80.9803 45.2509Z" fill="#F7B594"/>
<path id="Path" fill-rule="evenodd" clip-rule="evenodd" d="M104.801 61.9623C104.718 58.9216 102.149 56.5367 99.1097 56.5367H92.5665C95.6989 56.5367 98.2283 53.9517 98.1414 50.797C98.0584 47.7563 95.4897 45.3714 92.4504 45.3714H80.6406C82.7048 54.6006 81.5381 64.3626 76.603 72.9205C71.761 81.3168 64.1004 87.1466 55.2969 90.0341H86.0179C89.0572 90.0341 91.6259 87.6485 91.709 84.6078C91.7959 81.4531 89.2664 78.8681 86.134 78.8681H92.4504C95.4897 78.8681 98.0584 76.4832 98.1414 73.4417C98.2283 70.287 95.6989 67.702 92.5665 67.702H99.2258C102.358 67.702 104.888 65.1177 104.801 61.9623Z" fill="#F7B594"/>
<g id="Group">
<path id="Path_2" fill-rule="evenodd" clip-rule="evenodd" d="M81.5337 56.5352H92.6328C95.7345 56.499 98.2278 53.9294 98.1416 50.7962C98.1386 50.6777 98.1301 50.5607 98.1201 50.4437H81.4414C81.6298 52.4698 81.6621 54.5059 81.5337 56.5352Z" fill="#F0A479"/>
<path id="Path_3" fill-rule="evenodd" clip-rule="evenodd" d="M79.0957 67.7005H99.2921C102.394 67.6643 104.887 65.0954 104.801 61.9623C104.798 61.8438 104.789 61.7268 104.779 61.6097H80.8676C80.4539 63.6697 79.8655 65.7067 79.0957 67.7005H79.0957Z" fill="#F0A479"/>
<path id="Path_4" fill-rule="evenodd" clip-rule="evenodd" d="M76.6031 72.9205C75.3611 75.0737 73.9329 77.0567 72.3486 78.8665H92.5189C95.5282 78.8311 98.0592 76.4601 98.1415 73.4417C98.1477 73.2169 98.1392 72.9944 98.1192 72.775H76.6838C76.6569 72.8235 76.6308 72.872 76.6031 72.9205Z" fill="#F0A479"/>
<path id="Path_5" fill-rule="evenodd" clip-rule="evenodd" d="M91.7091 84.6077C91.7153 84.383 91.7068 84.1613 91.6876 83.9426H66.9184C63.4722 86.5769 59.5976 88.6007 55.4678 89.9756C55.7077 90.0133 55.9554 90.0341 56.2092 90.0341H86.0181C89.0566 90.0341 91.6261 87.6485 91.7091 84.6077Z" fill="#F0A479"/>
</g>
<rect id="Rectangle" x="38.5215" y="84.0267" width="30.7734" height="5.9237" fill="#F0A479"/>
<path id="Rectangle Copy 12" d="M67.2689 72.7717H87.8379V78.8929C87.8379 78.8929 64.4535 78.8929 62.7852 78.8929C67.9162 75.931 67.2689 72.7717 67.2689 72.7717Z" fill="#F0A479"/>
<path id="Rectangle Copy 13" d="M69.4901 61.7142L96.7148 61.7142V67.6379C96.7148 67.6379 71.6936 67.6379 65.9414 67.6379C69.4901 65.8139 69.4901 61.7142 69.4901 61.7142Z" fill="#F0A479"/>
<path id="Rectangle Copy 14" d="M71.4648 50.4592H91.7832V56.5803C91.7832 56.5803 79.4713 56.5803 74.81 56.5803C74.5267 52.2946 71.4648 50.4592 71.4648 50.4592Z" fill="#F0A479"/>
<path id="Path_6" fill-rule="evenodd" clip-rule="evenodd" d="M43.2207 89.4106C37.7504 77.8712 37.665 64.3918 44.2144 53.0348C47.7036 46.9842 52.6564 42.2645 58.4467 39.0189L63.0026 34.7719C69.4543 30.1585 63.8116 21.9153 57.9129 24.6374L32.7761 35.6326C32.7353 35.651 29.4076 37.223 26.9819 39.6748H26.9804C26.9535 39.7025 23.4696 43.2244 23.4696 43.2244C21.6323 45.0804 18.5292 45.4176 14.8077 45.4499V45.4492H7.61921C5.62042 45.4499 4 47.0719 4 49.0719V78.4285C4 80.4285 5.62042 82.0505 7.61921 82.0505H14.8077V82.0489C16.2689 82.0481 17.6332 82.0474 17.6355 82.0474C25.7114 82.042 24.9731 90.0434 35.0163 90.0334H43.5837C43.4468 89.8371 43.3245 89.63 43.2207 89.4106Z" fill="#F7B594"/>
<path id="Path_7" fill-rule="evenodd" clip-rule="evenodd" d="M41.0773 83.9427H35.0163C24.9731 83.9519 25.7114 75.9513 17.6355 75.9567C17.6332 75.9567 16.2689 75.9574 14.8077 75.9582V75.9598H7.61921C5.62042 75.9598 4 74.3378 4 72.337V78.4278C4 80.4285 5.62042 82.0505 7.61921 82.0505H14.8077V82.0489C16.2689 82.0482 17.6332 82.0474 17.6355 82.0474C25.7114 82.042 24.9731 90.0434 35.0163 90.0334H43.5837C43.4468 89.8371 43.3245 89.63 43.2207 89.4106C42.3763 87.6293 41.6611 85.8018 41.0773 83.9427Z" fill="#F0A479"/>
</g>
<g id="microbe">
<path id="Path_8" d="M67.7723 55.6993C67.7894 54.022 66.3298 52.7288 64.6545 52.7522C63.2292 52.7722 61.8538 53.0017 60.5564 53.4095C60.2222 53.5146 59.8657 53.4041 59.6183 53.156C59.6168 53.1545 59.6154 53.1531 59.6139 53.1516C58.6671 52.2039 57.4123 51.6746 56.0745 51.6571C55.6965 51.652 55.3398 51.9011 55.2847 52.2754C55.2184 52.7274 55.5668 53.1159 56.0052 53.1155C56.3635 53.1155 56.8059 53.2596 57.2228 53.4424C57.8256 53.7065 57.8887 54.5382 57.3289 54.8847C57.1765 54.9789 57.026 55.0759 56.8777 55.1758C56.3609 55.5228 55.7359 55.6563 55.1222 55.5516C54.8474 55.5049 54.5671 55.4805 54.2825 55.4805C52.9425 55.4805 51.6804 55.9948 50.7219 56.9309C50.4442 57.2019 50.3772 57.6444 50.6195 57.9472C50.9125 58.3127 51.4618 58.3145 51.7566 57.9523C52.0675 57.57 52.4508 57.2493 52.9257 57.1195C56.0296 56.2691 53.4917 58.2237 52.7599 59.3586C52.609 59.5928 52.3422 59.7161 52.0645 59.6949C51.9541 59.6865 51.843 59.6818 51.7311 59.6818C50.3918 59.6818 49.1312 60.1954 48.1727 61.13C47.9019 61.3941 47.8254 61.8227 48.051 62.1262C48.3236 62.4929 48.844 62.5209 49.1541 62.2101C49.4745 61.8895 50.0514 61.6385 50.5831 61.4609C51.0554 61.3033 51.5026 61.764 51.3317 62.232C51.2066 62.5746 51.094 62.9229 50.9949 63.2772C50.8575 63.7678 50.4807 64.1428 49.9971 64.3026C49.9945 64.3033 49.9916 64.3044 49.9891 64.3051C48.7142 64.7298 47.6778 65.6202 47.0637 66.8156C46.8931 67.1476 46.9627 67.5741 47.2681 67.7878C47.6424 68.0497 48.1454 67.9119 48.3414 67.519C48.7911 66.6198 50.4603 66.5829 50.4606 67.0506C50.4614 68.049 50.7613 69.0325 51.6126 69.5527C53.2676 70.5639 54.9662 70.0061 55.7866 68.8012C55.9407 68.5747 56.065 68.1092 56.1532 67.6711C56.2673 67.1049 56.9083 66.8215 57.4058 67.1144C58.4754 67.7448 59.1974 68.9059 59.2068 70.2338C59.2094 70.6062 59.4813 70.9429 59.8508 70.9849C60.2914 71.0348 60.6646 70.6908 60.6646 70.26C60.6646 67.7743 58.8799 65.7008 56.5267 65.2478C56.5173 65.2459 56.5111 65.2368 56.5133 65.2273C56.5147 65.2211 56.5162 65.2153 56.5176 65.2091C56.8405 63.8251 58.1977 63.2432 59.443 63.9254C60.267 64.3766 60.9179 65.1438 61.1967 66.1156C61.2987 66.4713 61.6533 66.7179 62.0181 66.6584C62.4558 66.5869 62.7222 66.155 62.6056 65.7402C62.1446 64.1001 60.9288 62.8752 59.4404 62.3313C58.7965 62.096 58.6263 61.2442 59.1365 60.7856C59.1412 60.7813 59.1463 60.7769 59.1511 60.7725C59.2732 60.6631 59.4244 60.5857 59.5862 60.5595C61.4248 60.2614 63.2222 61.4131 63.6945 63.2472C63.7882 63.6106 64.1403 63.8747 64.5113 63.8207C64.9453 63.7576 65.2194 63.3366 65.1159 62.9215C64.8134 61.7086 64.0976 60.7072 63.1566 60.0276C62.6278 59.6457 62.8173 58.8063 63.4606 58.7001C63.9143 58.6253 64.3804 58.5863 64.8549 58.5863C64.8564 58.5863 64.8575 58.5863 64.8589 58.5863C65.1195 58.5859 65.3739 58.6852 65.535 58.8902C66.0168 59.5037 66.3065 60.2753 66.3127 61.1132C66.3152 61.4857 66.5871 61.8227 66.9566 61.8647C67.3973 61.9147 67.7704 61.5707 67.7704 61.1398C67.7704 60.2472 67.539 59.4085 67.1349 58.6786C66.9136 58.2791 66.9151 57.7794 67.1892 57.4142C67.5503 56.936 67.7657 56.3432 67.7723 55.6993Z" fill="#0461FB"/>
<g id="Group_2">
<ellipse id="Oval_2" cx="53.5591" cy="68.0724" rx="1.09332" ry="1.09438" fill="#F29C39"/>
<ellipse id="Oval_3" cx="54.2877" cy="64.0596" rx="1.09332" ry="1.09438" fill="#F29C39"/>
<ellipse id="Oval_4" cx="56.1099" cy="60.4117" rx="1.09332" ry="1.09438" fill="#F29C39"/>
<ellipse id="Oval_5" cx="59.3902" cy="57.8582" rx="1.09332" ry="1.09438" fill="#F29C39"/>
<ellipse id="Oval_6" cx="63.399" cy="56.399" rx="1.09332" ry="1.09438" fill="#F29C39"/>
</g>
<g id="Group_3">
<ellipse id="Oval_7" cx="53.1949" cy="67.7075" rx="1.09332" ry="1.09438" fill="url(#paint0_linear_0_1879)"/>
<ellipse id="Oval_8" cx="53.9234" cy="63.6948" rx="1.09332" ry="1.09438" fill="url(#paint1_linear_0_1879)"/>
<ellipse id="Oval_9" cx="55.7457" cy="60.0469" rx="1.09332" ry="1.09438" fill="url(#paint2_linear_0_1879)"/>
<ellipse id="Oval_10" cx="59.0259" cy="57.4934" rx="1.09332" ry="1.09438" fill="url(#paint3_linear_0_1879)"/>
<ellipse id="Oval_11" cx="63.0347" cy="56.0342" rx="1.09332" ry="1.09438" fill="url(#paint4_linear_0_1879)"/>
</g>
<ellipse id="Oval_12" cx="53.0125" cy="67.5252" rx="0.54666" ry="0.547189" fill="white"/>
<ellipse id="Oval_13" cx="54.1062" cy="63.1477" rx="0.54666" ry="0.547189" fill="white"/>
<ellipse id="Oval_14" cx="55.199" cy="60.2293" rx="0.54666" ry="0.547189" fill="white"/>
<ellipse id="Oval_15" cx="58.4793" cy="57.311" rx="0.54666" ry="0.547189" fill="white"/>
<ellipse id="Oval_16" cx="63.2166" cy="55.487" rx="0.54666" ry="0.547189" fill="white"/>
</g>
</g>
<g id="research">
<ellipse id="Oval_17" opacity="0.3" cx="58.2617" cy="59.7338" rx="20.2197" ry="20.2392" fill="#90C5FF"/>
<path id="Rectangle_2" d="M21.7773 102.615L15.423 96.2541L33.807 77.8523L40.1613 84.2127L21.7773 102.615Z" fill="url(#paint5_linear_0_1879)"/>
<path id="Rectangle_3" d="M40.1611 84.2125L33.8068 77.8521L35.5408 76.1164L41.8951 82.4768L40.1611 84.2125Z" fill="url(#paint6_linear_0_1879)"/>
<path id="Rectangle_4" d="M20.043 104.35L13.6887 97.99L15.4227 96.2543L21.777 102.615L20.043 104.35Z" fill="url(#paint7_linear_0_1879)"/>
<g id="Group_4">
<path id="Path_9" opacity="0.2" fill-rule="evenodd" clip-rule="evenodd" d="M50.4317 94.5975L45.9766 92.8643L67.9385 36.2423L72.3939 37.9727L50.4317 94.5975Z" fill="white"/>
<path id="Path_10" opacity="0.2" fill-rule="evenodd" clip-rule="evenodd" d="M56.8077 99.9951L52.3516 98.2608L74.3135 41.6385L78.7667 43.3666L56.8077 99.9951Z" fill="white"/>
</g>
<path id="Shape" fill-rule="evenodd" clip-rule="evenodd" d="M58.2621 37.1638C64.2849 37.1638 69.9474 39.5114 74.2061 43.7744C78.465 48.0372 80.8103 53.7052 80.8103 59.7338C80.8103 65.7625 78.465 71.4305 74.2061 75.6934C69.9472 79.9564 64.2849 82.304 58.2621 82.304C53.0299 82.304 48.0705 80.5313 44.0663 77.2715L40.3806 80.9607L37.0559 77.6328L40.7416 73.9435C37.4847 69.9354 35.7139 64.971 35.7139 59.7338C35.7139 53.7052 38.0593 48.0372 42.3181 43.7744C46.5769 39.5114 52.2392 37.1638 58.2621 37.1638ZM58.2621 77.6424C63.041 77.6423 67.5339 75.7795 70.9131 72.3971C74.2923 69.0147 76.1534 64.5174 76.1534 59.7338C76.1532 54.9503 74.2922 50.4532 70.9131 47.0706C67.5339 43.6881 63.041 41.8253 58.2621 41.8253C53.4832 41.8254 48.9902 43.6882 45.6111 47.0706C42.2318 50.453 40.3708 54.9503 40.3708 59.7338C40.3709 64.5174 42.232 69.0147 45.6111 72.3971C48.9902 75.7796 53.4832 77.6424 58.2621 77.6424Z" fill="#FFD581"/>
<path id="Path_11" d="M58.2615 82.3038C64.2844 82.3038 69.9467 79.9562 74.2055 75.6933C78.4644 71.4303 80.8097 65.7625 80.8097 59.7338C80.8099 53.7051 78.4644 48.0372 74.2055 43.7744L70.9125 47.0706C74.2916 50.453 76.1526 54.9503 76.1528 59.7338C76.1526 64.5173 74.2918 69.0146 70.9125 72.397C67.5333 75.7794 63.0404 77.6423 58.2615 77.6424C53.4826 77.6424 48.9897 75.7796 45.6105 72.397L42.5575 75.453L42.3175 75.6933L38.7176 79.2966L37.8505 80.1645L16.8652 101.17L20.0424 104.35L21.7764 102.615L40.1608 84.2125L41.8948 82.4769L40.3798 80.9605L44.0656 77.2713C48.0699 80.5311 53.0294 82.3038 58.2615 82.3038Z" fill="url(#paint8_linear_0_1879)"/>
</g>
</g>
</g>
<defs>
<linearGradient id="paint0_linear_0_1879" x1="53.2771" y1="66.3921" x2="51.6074" y2="67.759" gradientUnits="userSpaceOnUse">
<stop stop-color="#F9C762"/>
<stop offset="1" stop-color="#F19533"/>
</linearGradient>
<linearGradient id="paint1_linear_0_1879" x1="54.0057" y1="62.3795" x2="52.3359" y2="63.7463" gradientUnits="userSpaceOnUse">
<stop stop-color="#F9C762"/>
<stop offset="1" stop-color="#F19533"/>
</linearGradient>
<linearGradient id="paint2_linear_0_1879" x1="55.8279" y1="58.7315" x2="54.1581" y2="60.0983" gradientUnits="userSpaceOnUse">
<stop stop-color="#F9C762"/>
<stop offset="1" stop-color="#F19533"/>
</linearGradient>
<linearGradient id="paint3_linear_0_1879" x1="59.1082" y1="56.178" x2="57.4384" y2="57.5448" gradientUnits="userSpaceOnUse">
<stop stop-color="#F9C762"/>
<stop offset="1" stop-color="#F19533"/>
</linearGradient>
<linearGradient id="paint4_linear_0_1879" x1="63.117" y1="54.7188" x2="61.4472" y2="56.0856" gradientUnits="userSpaceOnUse">
<stop stop-color="#F9C762"/>
<stop offset="1" stop-color="#F19533"/>
</linearGradient>
<linearGradient id="paint5_linear_0_1879" x1="16.4972" y1="101.049" x2="26.1426" y2="106.433" gradientUnits="userSpaceOnUse">
<stop stop-color="#F9C762"/>
<stop offset="1" stop-color="#F19533"/>
</linearGradient>
<linearGradient id="paint6_linear_0_1879" x1="36.5673" y1="80.9697" x2="39.8135" y2="79.3476" gradientUnits="userSpaceOnUse">
<stop stop-color="#F9C762"/>
<stop offset="1" stop-color="#F19533"/>
</linearGradient>
<linearGradient id="paint7_linear_0_1879" x1="16.4492" y1="101.108" x2="19.6953" y2="99.4855" gradientUnits="userSpaceOnUse">
<stop stop-color="#F9C762"/>
<stop offset="1" stop-color="#F19533"/>
</linearGradient>
<linearGradient id="paint8_linear_0_1879" x1="51.2431" y1="37.6576" x2="4.59296" y2="78.0059" gradientUnits="userSpaceOnUse">
<stop stop-color="#F9C762"/>
<stop offset="1" stop-color="#F19533"/>
</linearGradient>
</defs>
</svg>
